{"title":"Warning 2013 DVDRip x264 Hindi ESubs - ViZNU [P2PDL]","uid":9221977,"size":372541106,"categoryP":"video","categoryS":"movies","magnet":"?xt=urn:btih:0ea2609279e29c8904179da7a93004a86bca56a1&amp;dn=Warning+2013+DVDRip+x264+Hindi+ESubs+-+ViZNU+%5BP2PDL%5D&amp;tr=udp%3A%2F%2Ftracker.openbittorrent.com%3A80&amp;tr=udp%3A%2F%2Fopen.demonii.com%3A1337&amp;tr=udp%3A%2F%2Ftracker.coppersurfer.tk%3A6969&amp;tr=udp%3A%2F%2Fexodus.desync.com%3A6969","seeders":0,"leechers":1,"uploader":"TeX","files":5,"time":1384956463,"description":"[center][IMG]http://cdn.piczend.com/images/6v5zO5wR/1384918654_warning%202013.jpg[/IMG][/IMG]\n\n\n\n[b]Warning 2013 DVDRip x264 Hindi ESubs - ViZNU[/b]\n\n\nGenre: Thriller\nIMDb: [url]http://www.imdb.com/title/tt3138602/[/url]\nTrailer:\n\n\n[quote]Format                         : MPEG-4\nFile size                      : 351 MiB\nDuration                       : 1h 43mn\nOverall bit rate               : 473 Kbps\n\nVideo\nFormat                         : AVC\nBit rate                       : 431 Kbps\nWidth                          : 656 pixels\nHeight                         : 272 pixels\nDisplay aspect ratio           : 2.40:1\nFrame rate mode                : Constant\nFrame rate                     : 25.000 fps\nBit depth                      : 10 bits\nStream size                    : 319 MiB (91%)\nWriting library                : x264 core 138 r2358\n\nAudio\nFormat                         : AAC\nBit rate mode                  : Variable\nBit rate                       : 39.8 Kbps\nChannel(s)                     : 2 channels\nChannel positions              : Front: L R\nSampling rate                  : 48.0 KHz\nStream size                    : 29.5 MiB (8%)\nLanguage                       : Hindi\n\nSubtitle                       : Yes (English)\n\nSource                         : NTSC DVD9[/quote]\n\n\n[b]Screenshots:[/b]\n\n[img]http://ultraimg.com/images/hsfIr.png[/img]\n\n[img]http://ultraimg.com/images/9CNoB.png[/img]\n\n[img]http://ultraimg.com/images/rdOLo.png[/img]\n\n[img]http://ultraimg.com/images/XGn86.png[/img]\n\n[img]http://ultraimg.com/images/SIEz.png[/img]\n\n[img]http://ultraimg.com/images/zVEW2.png[/img]\n\n[img]http://ultraimg.com/images/lBtim.png[/img]\n\n[img]http://ultraimg.com/images/RGDrH.png[/img]\n\n\n----------------------------------------------------------------------------------------------------\n\n\n[quote]Encoded using revolutionary 10bit encoding, which enables us to provide you more crispier \nand sharper images at small sizes, just make sure you follow our instructions without a fault.\nRecommend to you to use latest version of VLC player. Install K-Lite Codec Pack or shark007 codecs\nin case of any kind of problem in playback (For non-VLC Media Player users). Alternat\t\t\t\t\t\t\t\t\t\t\t\t\t\t\t\t\t\t\t\nCore AVC codecs, the fastest decoder that there is coupled with Community Center Codec Pack and play\non Windows Media Player Classic. Check sample to be sure.\nEnjoy!\n\nEncoder Notes: Looking For Early Access To Anything You Can Provide DVDScr, R5, DVDR, BluRay, Direct\nAudio, Music Releases and Seedboxes. [b]We require dedicated servers, so as to do more and fast releases of movies.[/b]\nIf You Got anything to offer contact us at &quot;&lt;a class=&quot;__cf_email__&quot; href=&quot;/cdn-cgi/l/email-protection&quot; data-cfemail=&quot;5020223710382523387e333f3d&quot;&gt;[email&amp;#160;protected]&lt;/a&gt;&lt;script cf-hash='f9e31' type=&quot;text/javascript&quot;&gt;\n/* &lt;![CDATA[ */!function(){try{var t=&quot;currentScript&quot;in document?document.currentScript:function(){for(var t=document.getElementsByTagName(&quot;script&quot;),e=t.length;e--;)if(t[e].getAttribute(&quot;cf-hash&quot;))return t[e]}();if(t&amp;&amp;t.previousSibling){var e,r,n,i,c=t.previousSibling,a=c.getAttribute(&quot;data-cfemail&quot;);if(a){for(e=&quot;&quot;,r=parseInt(a.substr(0,2),16),n=2;a.length-n;n+=2)i=parseInt(a.substr(n,2),16)^r,e+=String.fromCharCode(i);e=document.createTextNode(e),c.parentNode.replaceChild(e,c)}}}catch(u){}}();/* ]]&gt; */&lt;/script&gt;&quot;.[/quote]\n\n\n[img]http://img607.imageshack.us/img607/1552/nbyu.png[/img]\n\n\n","torrent":{"xt":"urn:btih:0ea2609279e29c8904179da7a93004a86bca56a1","amp;dn":"Warning+2013+DVDRip+x264+Hindi+ESubs+-+ViZNU+%5BP2PDL%5D","amp;tr":["udp%3A%2F%2Ftracker.openbittorrent.com%3A80","udp%3A%2F%2Fopen.demonii.com%3A1337","udp%3A%2F%2Ftracker.coppersurfer.tk%3A6969","udp%3A%2F%2Fexodus.desync.com%3A6969"],"infoHash":"0ea2609279e29c8904179da7a93004a86bca56a1","infoHashBuffer":{"type":"Buffer","data":[14,162,96,146,121,226,156,137,4,23,157,167,169,48,4,168,107,202,86,161]},"announce":[],"urlList":[]}}